<?xml version="1.0" standalone="no"?>
<!DOCTYPE svg PUBLIC "-//W3C//DTD SVG 20010904//EN"
 "http://www.w3.org/TR/2001/REC-SVG-20010904/DTD/svg10.dtd">
<svg version="1.0" xmlns="http://www.w3.org/2000/svg"
 width="658.000000pt" height="658.000000pt" viewBox="0 0 658.000000 658.000000"
 preserveAspectRatio="xMidYMid meet">
<metadata>
Created by potrace 1.14, written by Peter Selinger 2001-2017
</metadata>
<g transform="translate(0.000000,658.000000) scale(0.100000,-0.100000)"
fill="#000000" stroke="none">
<path d="M4142 6292 c-7 -2 -10 -13 -6 -27 4 -17 0 -26 -15 -35 -12 -6 -26 -8
-31 -5 -5 3 -23 -1 -39 -10 -18 -9 -56 -15 -96 -15 -56 0 -65 2 -65 18 0 31
-59 67 -107 65 -59 -2 -63 -4 -63 -23 0 -26 -57 -62 -87 -55 -12 3 -24 1 -27
-4 -6 -9 -101 -12 -123 -4 -7 3 -13 13 -13 22 -1 28 -24 46 -65 49 -96 7 -150
7 -156 0 -3 -5 -22 -11 -42 -15 -30 -4 -37 -3 -37 11 0 20 -19 21 -26 1 -5
-12 -20 -14 -83 -10 -42 3 -92 7 -111 8 -19 1 -40 5 -45 9 -13 8 -159 13 -171
6 -5 -3 -36 -6 -68 -6 -32 0 -62 -5 -65 -10 -3 -5 -15 -12 -26 -14 -11 -2 -19
-10 -17 -17 2 -8 -3 -11 -12 -8 -9 4 -18 2 -20 -2 -3 -5 -23 -11 -45 -15 -31
-5 -40 -11 -45 -32 -4 -15 -14 -33 -21 -41 -8 -8 -15 -25 -15 -38 0 -19 -4
-23 -17 -18 -11 4 -14 3 -9 -5 8 -14 -54 -42 -94 -42 -24 0 -29 5 -35 36 -3
21 -2 40 3 43 5 3 12 17 16 31 6 21 5 23 -6 10 -7 -8 -25 -21 -40 -27 -16 -7
-28 -17 -28 -23 0 -5 -9 -10 -19 -10 -11 0 -21 -5 -23 -11 -2 -6 -25 -11 -51
-12 -33 0 -47 -5 -47 -14 0 -19 -24 -42 -47 -46 -10 -2 -28 -8 -40 -15 -29
-16 -53 -15 -53 1 0 8 -7 14 -15 14 -8 0 -15 -6 -15 -14 0 -7 -4 -13 -9 -13
-6 0 -22 -11 -36 -24 -15 -14 -36 -26 -48 -28 -19 -3 -22 -9 -22 -53 0 -37 -4
-50 -15 -51 -8 -1 -17 -3 -20 -4 -26 -10 -42 -6 -50 13 -8 21 -9 20 -9 -5 -1
-16 3 -28 8 -28 5 0 12 -9 16 -19 3 -10 14 -21 23 -23 30 -8 24 -43 -10 -59
l-30 -15 31 -33 c27 -29 30 -38 23 -60 -6 -16 -15 -25 -26 -23 -23 4 -20 -15
4 -28 25 -13 26 -36 1 -49 -19 -11 -112 -4 -121 9 -21 29 -617 46 -722 20 -97
-24 -150 -46 -186 -77 -20 -18 -40 -33 -44 -33 -4 0 -19 -16 -34 -36 -24 -31
-28 -45 -31 -125 -3 -86 -2 -91 25 -117 15 -15 34 -28 42 -27 8 0 20 -6 26
-14 8 -11 18 -11 45 -3 91 28 179 22 179 -11 0 -8 15 -14 35 -15 20 -2 45 -10
56 -20 11 -9 24 -18 29 -18 6 -1 12 -3 15 -4 3 -1 8 -3 13 -5 17 -5 48 -17 64
-26 10 -5 22 -9 27 -9 5 0 22 -5 38 -12 15 -6 37 -13 48 -15 11 -2 22 -8 23
-13 2 -6 8 -8 13 -4 5 3 9 0 9 -5 0 -6 4 -11 9 -11 9 0 86 -35 251 -112 47
-22 90 -41 96 -42 6 -1 38 -26 72 -56 33 -29 80 -66 104 -82 100 -65 163 -122
153 -138 -3 -5 -1 -10 4 -10 29 0 50 -40 56 -106 3 -37 8 -71 11 -76 3 -5 1
-15 -6 -23 -6 -7 -12 -30 -14 -52 -5 -50 -15 -73 -33 -73 -12 0 -12 -2 1 -16
9 -8 14 -19 11 -23 -2 -5 -7 -37 -9 -72 -3 -35 -8 -75 -11 -89 -13 -58 -17
-77 -19 -115 -4 -57 -90 -222 -142 -270 -6 -5 -19 -23 -29 -40 -23 -36 -68
-87 -163 -184 -41 -41 -89 -94 -108 -117 -19 -23 -94 -103 -167 -179 -72 -75
-133 -141 -135 -146 -2 -5 -28 -35 -57 -66 -60 -64 -112 -145 -123 -189 -4
-16 -7 -67 -7 -114 0 -73 4 -93 28 -142 17 -35 44 -68 71 -89 42 -32 82 -85
78 -102 -2 -5 6 -7 15 -6 10 2 28 -3 41 -10 13 -7 47 -12 76 -12 69 0 275 38
303 57 12 8 27 14 33 14 5 0 32 10 60 22 35 15 49 26 45 36 -4 11 3 13 30 10
19 -2 35 -1 35 3 0 8 55 29 75 29 27 0 104 -89 97 -112 -1 -5 2 -8 7 -8 7 0
13 -16 27 -79 1 -7 21 -30 43 -50 23 -21 41 -43 41 -49 0 -7 4 -12 9 -12 5 0
11 -10 13 -22 2 -16 9 -22 21 -20 9 2 17 -1 17 -6 0 -33 204 -185 223 -166 3
3 23 0 44 -7 21 -7 42 -12 47 -11 4 2 14 -5 22 -15 7 -10 14 -14 14 -10 0 4 9
3 20 -3 11 -6 39 -13 62 -16 24 -3 50 -8 58 -11 8 -3 29 -7 45 -10 36 -6 33
-2 39 -38 3 -17 11 -57 17 -90 6 -33 13 -71 15 -84 1 -13 7 -27 13 -30 6 -4
10 -20 10 -36 0 -17 1 -45 1 -63 1 -18 -4 -40 -10 -48 -7 -7 -14 -58 -17 -111
-2 -54 -6 -100 -9 -102 -2 -2 1 -10 6 -16 7 -8 7 -21 1 -37 -5 -14 -6 -31 -1
-39 5 -7 7 -40 6 -72 -3 -40 0 -62 10 -72 20 -19 18 -29 -11 -56 -27 -27 -31
-48 -12 -68 10 -10 8 -15 -8 -27 -12 -9 -19 -24 -17 -38 2 -13 -2 -27 -8 -31
-8 -5 -5 -13 9 -26 12 -11 21 -25 22 -32 0 -7 3 -21 5 -32 3 -11 6 -29 9 -40
2 -11 6 -30 8 -41 4 -16 -1 -25 -19 -33 -22 -10 -24 -15 -18 -46 7 -38 -11
-95 -30 -95 -7 0 -11 -34 -12 -102 -1 -57 -3 -126 -4 -155 -1 -28 1 -56 4 -62
5 -8 256 -11 877 -11 l869 0 0 29 c0 32 -39 86 -70 96 -17 5 -19 13 -14 53 3
26 17 80 32 120 l27 74 34 -6 c18 -3 31 -2 27 1 -3 3 -1 12 5 19 6 8 13 42 15
76 7 87 9 107 16 113 3 4 1 19 -5 35 -8 22 -8 32 4 46 21 26 19 60 -4 60 -39
-2 -24 73 15 75 17 1 18 3 6 6 -15 4 -17 12 -11 56 3 29 7 64 7 80 1 15 4 27
9 27 4 0 7 20 7 45 0 25 5 45 10 45 14 0 13 43 -1 57 -6 6 -12 48 -13 93 -1
64 1 83 14 90 12 8 11 9 -7 10 -19 0 -23 6 -23 30 0 18 6 33 15 36 9 4 14 17
13 33 -1 14 4 36 10 48 7 12 12 35 12 51 0 16 3 32 6 35 4 4 8 28 9 54 3 64
15 123 26 123 5 0 9 11 9 25 0 15 6 25 14 25 16 0 26 21 26 56 0 14 7 27 15
30 8 4 15 12 15 20 0 8 3 14 8 14 4 0 8 12 8 26 1 14 11 32 23 40 12 9 21 22
21 31 0 10 6 14 18 11 15 -4 18 -1 14 18 -2 13 5 39 17 59 14 24 20 50 19 83
-1 30 8 71 26 115 14 38 22 66 17 62 -12 -7 -10 38 2 46 4 3 8 35 8 70 1 68
15 129 30 129 5 0 9 9 9 20 0 11 7 23 15 26 9 4 15 19 15 39 0 19 5 37 10 40
6 4 9 20 6 35 -2 18 1 31 9 34 7 2 16 24 20 48 4 24 17 63 28 88 11 25 20 55
18 68 -2 19 2 22 28 22 21 0 31 5 31 15 0 9 7 18 15 21 8 4 18 24 21 45 4 21
10 37 14 34 9 -5 34 23 43 48 4 9 2 17 -2 17 -5 0 -9 15 -9 33 l0 32 56 0 c66
0 82 -7 75 -35 -6 -24 -5 -24 41 -5 20 8 38 15 41 15 36 -1 48 4 70 27 14 15
28 42 31 60 4 19 12 33 20 33 14 0 16 6 18 65 1 24 6 31 30 35 29 5 49 35 38
55 -13 21 -9 36 11 46 35 18 52 42 49 67 -2 13 2 22 10 22 11 0 14 23 15 103
1 142 2 149 12 143 5 -3 14 1 21 9 9 10 9 15 1 15 -6 0 -11 17 -11 39 0 35 3
40 26 43 25 3 25 3 6 24 -13 14 -19 32 -17 57 1 27 -3 38 -15 42 -19 6 -30 34
-30 78 0 37 24 36 78 -4 23 -17 42 -28 42 -24 0 10 -28 35 -39 35 -13 0 -21
33 -19 81 2 38 -24 85 -41 74 -6 -3 -11 0 -11 7 0 17 -80 103 -104 112 -13 4
-17 13 -14 31 3 14 1 25 -3 25 -5 0 -9 7 -9 15 0 8 -3 14 -7 13 -17 -3 -43 15
-43 31 0 9 -13 29 -30 44 -16 16 -30 37 -30 48 0 10 -4 19 -9 19 -5 0 -17 7
-25 15 -8 9 -32 17 -53 18 -37 2 -38 3 -35 37 1 19 10 38 18 43 14 8 13 11 -1
33 -20 31 -12 80 15 94 27 14 40 12 40 -6 0 -10 7 -14 23 -12 18 2 22 8 19 36
-1 17 2 32 7 32 4 0 6 11 3 25 -3 17 0 25 9 25 7 0 4 7 -9 16 -18 12 -22 25
-22 65 0 37 4 49 15 49 22 0 18 28 -5 42 -24 15 -26 36 -5 44 8 4 15 14 15 24
0 10 6 20 13 23 6 2 13 13 13 25 2 38 4 40 22 45 15 4 15 5 -2 6 -10 0 -27 11
-37 23 l-19 21 0 -22 c0 -20 -3 -22 -32 -16 -30 7 -41 15 -39 30 2 10 -43 55
-55 55 -15 0 -24 23 -24 61 0 19 -5 29 -15 29 -13 0 -19 11 -17 31 1 4 -8 5
-19 2 -12 -3 -24 -2 -28 4 -3 5 -21 19 -39 32 -44 30 -75 93 -67 133 6 28 5
29 -13 19 -32 -17 -40 -14 -91 38 -41 40 -49 54 -49 85 0 27 -6 42 -21 52 -11
8 -26 20 -33 28 -8 7 -31 16 -52 20 -34 6 -38 10 -33 32 3 17 0 24 -12 25 -24
1 -39 5 -111 32 -52 20 -67 30 -76 53 -26 71 -44 101 -67 111 -13 6 -30 7 -37
3 -7 -5 -21 -7 -31 -5 -10 2 -23 -3 -30 -11 -6 -8 -20 -14 -30 -14 -10 0 -21
-4 -24 -10 -3 -5 -31 -10 -61 -10 -57 0 -56 0 -58 55 -1 28 -4 30 -33 27 -18
-2 -33 1 -33 6 0 10 -49 21 -68 14z"/>
<path d="M1675 5870 c3 -5 8 -10 11 -10 2 0 4 5 4 10 0 6 -5 10 -11 10 -5 0
-7 -4 -4 -10z"/>
</g>
</svg>
